<svg width="32" height="32" viewBox="0 0 32 32" fill="none" xmlns="http://www.w3.org/2000/svg">
<circle cx="16" cy="16" r="16" fill="#BA4300"/>
<rect width="24" height="24" transform="translate(4 4)" fill="#BA4300"/>
<path d="M16 5.5C10.2016 5.5 5.5 10.2016 5.5 16C5.5 21.7984 10.2016 26.5 16 26.5C21.7984 26.5 26.5 21.7984 26.5 16C26.5 10.2016 21.7984 5.5 16 5.5ZM16 24.7188C11.1859 24.7188 7.28125 20.8141 7.28125 16C7.28125 11.1859 11.1859 7.28125 16 7.28125C20.8141 7.28125 24.7188 11.1859 24.7188 16C24.7188 20.8141 20.8141 24.7188 16 24.7188Z" fill="white"/>
<path d="M14.875 11.875C14.875 12.1734 14.9935 12.4595 15.2045 12.6705C15.4155 12.8815 15.7016 13 16 13C16.2984 13 16.5845 12.8815 16.7955 12.6705C17.0065 12.4595 17.125 12.1734 17.125 11.875C17.125 11.5766 17.0065 11.2905 16.7955 11.0795C16.5845 10.8685 16.2984 10.75 16 10.75C15.7016 10.75 15.4155 10.8685 15.2045 11.0795C14.9935 11.2905 14.875 11.5766 14.875 11.875ZM16.5625 14.5H15.4375C15.3344 14.5 15.25 14.5844 15.25 14.6875V21.0625C15.25 21.1656 15.3344 21.25 15.4375 21.25H16.5625C16.6656 21.25 16.75 21.1656 16.75 21.0625V14.6875C16.75 14.5844 16.6656 14.5 16.5625 14.5Z" fill="white"/>
</svg>
