<svg xmlns="http://www.w3.org/2000/svg" width="80" height="24" viewBox="0 0 80 24" fill="none">
  <path d="M5.44666 19.6794L0 4.95281L4.93937 4.97913L8.75738 15.0691L12.5219 4.97913H18.636L22.4273 15.0691L26.2186 4.97913H31.2113L25.7688 19.4998L38.6337 4.66296H44.908L54.5464 15.8068L59.192 12.0132L44.5342 0H51.9298L75.612 19.3634H68.163L62.9032 15.0428L57.6167 19.3634H51.2891L48.3522 15.8068H37.9929L40.5293 12.8826H45.7624L41.7842 8.24583L28.1409 24H21.8666L25.6358 19.6531H19.1166L15.619 10.169L12.0413 19.6794H5.44666Z" fill="white"/>
  <path d="M68.0647 4.95322L64.4069 7.93019L68.1715 11.0652L75.6205 4.95322H68.0647Z" fill="#F78E1E"/>
  <path d="M76.7919 5.1643H76.2654V4.85818H77.6987V5.1643H77.1727V6.48105H76.7919V5.1643ZM79.4005 6.48105L79.3979 5.50733L78.9141 6.30948H78.7426L78.261 5.52819V6.48105H77.9038V4.85818H78.2189L78.834 5.86674L79.4406 4.85818H79.7531L79.7579 6.48105H79.4005Z" fill="white"/>
</svg>