<svg width="32" height="32" viewBox="0 0 32 32" fill="none" xmlns="http://www.w3.org/2000/svg">
<circle cx="16" cy="16" r="16" fill="#E1DFFA"/>
<path d="M23.125 22H22.5625V14.0312C22.5625 10.7242 20.118 7.99141 16.9375 7.53672V6.625C16.9375 6.10703 16.518 5.6875 16 5.6875C15.482 5.6875 15.0625 6.10703 15.0625 6.625V7.53672C11.882 7.99141 9.4375 10.7242 9.4375 14.0312V22H8.875C8.46016 22 8.125 22.3352 8.125 22.75V23.5C8.125 23.6031 8.20937 23.6875 8.3125 23.6875H13.375C13.375 25.1359 14.5516 26.3125 16 26.3125C17.4484 26.3125 18.625 25.1359 18.625 23.6875H23.6875C23.7906 23.6875 23.875 23.6031 23.875 23.5V22.75C23.875 22.3352 23.5398 22 23.125 22ZM16 24.8125C15.3789 24.8125 14.875 24.3086 14.875 23.6875H17.125C17.125 24.3086 16.6211 24.8125 16 24.8125ZM11.125 22V14.0312C11.125 12.7281 11.6312 11.5047 12.5523 10.5836C13.4734 9.6625 14.6969 9.15625 16 9.15625C17.3031 9.15625 18.5266 9.6625 19.4477 10.5836C20.3687 11.5047 20.875 12.7281 20.875 14.0312V22H11.125Z" fill="white"/>
</svg>
