<svg width="678" height="211" viewBox="0 0 678 211" fill="none" xmlns="http://www.w3.org/2000/svg">
<path d="M17.152 99.432V75.24H81.152V99.432H64.512V161H34.816V99.432H17.152ZM93.895 161V75.24H123.591V161H93.895ZM201.542 159.336C192.497 161.555 183.238 162.664 173.766 162.664C164.294 162.664 156.998 161.341 151.878 158.696C146.758 155.965 143.046 151.443 140.742 145.128C138.523 138.813 137.414 129.725 137.414 117.864C137.414 100.883 140.017 89.2773 145.222 83.048C150.513 76.7333 160.539 73.576 175.302 73.576C181.446 73.576 188.699 74.4293 197.062 76.136L201.542 77.032L200.774 99.944C193.777 99.0907 187.291 98.664 181.318 98.664C175.43 98.664 171.633 99.816 169.926 102.12C168.219 104.339 167.366 108.989 167.366 116.072C167.366 123.155 167.75 128.061 168.518 130.792C169.371 133.523 170.694 135.357 172.486 136.296C174.278 137.149 177.179 137.576 181.19 137.576L201.158 136.808L201.542 159.336ZM212.192 99.432V75.24H276.192V99.432H259.552V161H229.856V99.432H212.192ZM277.33 161L296.274 75.24H341.202L360.53 161H330.578L328.146 151.144H308.562L306.514 161H277.33ZM317.266 98.536L312.402 128.488H325.074L320.466 98.536H317.266ZM431.957 159.336C422.912 161.555 413.653 162.664 404.181 162.664C394.709 162.664 387.413 161.341 382.293 158.696C377.173 155.965 373.461 151.443 371.157 145.128C368.938 138.813 367.829 129.725 367.829 117.864C367.829 100.883 370.432 89.2773 375.637 83.048C380.928 76.7333 390.954 73.576 405.717 73.576C411.861 73.576 419.114 74.4293 427.477 76.136L431.957 77.032L431.189 99.944C424.192 99.0907 417.706 98.664 411.733 98.664C405.845 98.664 402.048 99.816 400.341 102.12C398.634 104.339 397.781 108.989 397.781 116.072C397.781 123.155 398.165 128.061 398.933 130.792C399.786 133.523 401.109 135.357 402.901 136.296C404.693 137.149 407.594 137.576 411.605 137.576L431.573 136.808L431.957 159.336ZM442.607 99.432V75.24H506.607V99.432H489.967V161H460.271V99.432H442.607ZM546.01 118.12C546.01 125.373 546.693 130.621 548.058 133.864C549.509 137.021 552.453 138.6 556.89 138.6C561.413 138.6 564.357 137.021 565.722 133.864C567.087 130.707 567.77 125.459 567.77 118.12C567.77 110.696 567.087 105.448 565.722 102.376C564.442 99.2187 561.541 97.64 557.018 97.64C552.495 97.64 549.509 99.2613 548.058 102.504C546.693 105.661 546.01 110.867 546.01 118.12ZM597.722 118.12C597.722 133.736 594.479 145.085 587.994 152.168C581.509 159.165 571.141 162.664 556.89 162.664C542.725 162.664 532.357 159.123 525.786 152.04C519.301 144.957 516.058 133.651 516.058 118.12C516.058 102.504 519.301 91.1973 525.786 84.2C532.271 77.1173 542.639 73.576 556.89 73.576C571.141 73.576 581.509 77.1173 587.994 84.2C594.479 91.1973 597.722 102.504 597.722 118.12ZM611.28 161V75.24H675.536V98.92H640.976V106.216H667.856V129.64H640.976V137.32H675.536V161H611.28Z" fill="url(#paint0_linear_2_92)"/>
<mask id="path-2-outside-1_2_92" maskUnits="userSpaceOnUse" x="-1" y="55" width="663" height="94" fill="black">
<rect fill="white" x="-1" y="55" width="663" height="94"/>
<path d="M1.152 83.432V59.24H65.152V83.432H48.512V145H18.816V83.432H1.152ZM77.895 145V59.24H107.591V145H77.895ZM185.542 143.336C176.497 145.555 167.238 146.664 157.766 146.664C148.294 146.664 140.998 145.341 135.878 142.696C130.758 139.965 127.046 135.443 124.742 129.128C122.523 122.813 121.414 113.725 121.414 101.864C121.414 84.8827 124.017 73.2773 129.222 67.048C134.513 60.7333 144.539 57.576 159.302 57.576C165.446 57.576 172.699 58.4293 181.062 60.136L185.542 61.032L184.774 83.944C177.777 83.0907 171.291 82.664 165.318 82.664C159.43 82.664 155.633 83.816 153.926 86.12C152.219 88.3387 151.366 92.9893 151.366 100.072C151.366 107.155 151.75 112.061 152.518 114.792C153.371 117.523 154.694 119.357 156.486 120.296C158.278 121.149 161.179 121.576 165.19 121.576L185.158 120.808L185.542 143.336ZM196.192 83.432V59.24H260.192V83.432H243.552V145H213.856V83.432H196.192ZM261.33 145L280.274 59.24H325.202L344.53 145H314.578L312.146 135.144H292.562L290.514 145H261.33ZM301.266 82.536L296.402 112.488H309.074L304.466 82.536H301.266ZM415.957 143.336C406.912 145.555 397.653 146.664 388.181 146.664C378.709 146.664 371.413 145.341 366.293 142.696C361.173 139.965 357.461 135.443 355.157 129.128C352.938 122.813 351.829 113.725 351.829 101.864C351.829 84.8827 354.432 73.2773 359.637 67.048C364.928 60.7333 374.954 57.576 389.717 57.576C395.861 57.576 403.114 58.4293 411.477 60.136L415.957 61.032L415.189 83.944C408.192 83.0907 401.706 82.664 395.733 82.664C389.845 82.664 386.048 83.816 384.341 86.12C382.634 88.3387 381.781 92.9893 381.781 100.072C381.781 107.155 382.165 112.061 382.933 114.792C383.786 117.523 385.109 119.357 386.901 120.296C388.693 121.149 391.594 121.576 395.605 121.576L415.573 120.808L415.957 143.336ZM426.607 83.432V59.24H490.607V83.432H473.967V145H444.271V83.432H426.607ZM530.01 102.12C530.01 109.373 530.693 114.621 532.058 117.864C533.509 121.021 536.453 122.6 540.89 122.6C545.413 122.6 548.357 121.021 549.722 117.864C551.087 114.707 551.77 109.459 551.77 102.12C551.77 94.696 551.087 89.448 549.722 86.376C548.442 83.2187 545.541 81.64 541.018 81.64C536.495 81.64 533.509 83.2613 532.058 86.504C530.693 89.6613 530.01 94.8667 530.01 102.12ZM581.722 102.12C581.722 117.736 578.479 129.085 571.994 136.168C565.509 143.165 555.141 146.664 540.89 146.664C526.725 146.664 516.357 143.123 509.786 136.04C503.301 128.957 500.058 117.651 500.058 102.12C500.058 86.504 503.301 75.1973 509.786 68.2C516.271 61.1173 526.639 57.576 540.89 57.576C555.141 57.576 565.509 61.1173 571.994 68.2C578.479 75.1973 581.722 86.504 581.722 102.12ZM595.28 145V59.24H659.536V82.92H624.976V90.216H651.856V113.64H624.976V121.32H659.536V145H595.28Z"/>
</mask>
<path d="M1.152 83.432V59.24H65.152V83.432H48.512V145H18.816V83.432H1.152ZM77.895 145V59.24H107.591V145H77.895ZM185.542 143.336C176.497 145.555 167.238 146.664 157.766 146.664C148.294 146.664 140.998 145.341 135.878 142.696C130.758 139.965 127.046 135.443 124.742 129.128C122.523 122.813 121.414 113.725 121.414 101.864C121.414 84.8827 124.017 73.2773 129.222 67.048C134.513 60.7333 144.539 57.576 159.302 57.576C165.446 57.576 172.699 58.4293 181.062 60.136L185.542 61.032L184.774 83.944C177.777 83.0907 171.291 82.664 165.318 82.664C159.43 82.664 155.633 83.816 153.926 86.12C152.219 88.3387 151.366 92.9893 151.366 100.072C151.366 107.155 151.75 112.061 152.518 114.792C153.371 117.523 154.694 119.357 156.486 120.296C158.278 121.149 161.179 121.576 165.19 121.576L185.158 120.808L185.542 143.336ZM196.192 83.432V59.24H260.192V83.432H243.552V145H213.856V83.432H196.192ZM261.33 145L280.274 59.24H325.202L344.53 145H314.578L312.146 135.144H292.562L290.514 145H261.33ZM301.266 82.536L296.402 112.488H309.074L304.466 82.536H301.266ZM415.957 143.336C406.912 145.555 397.653 146.664 388.181 146.664C378.709 146.664 371.413 145.341 366.293 142.696C361.173 139.965 357.461 135.443 355.157 129.128C352.938 122.813 351.829 113.725 351.829 101.864C351.829 84.8827 354.432 73.2773 359.637 67.048C364.928 60.7333 374.954 57.576 389.717 57.576C395.861 57.576 403.114 58.4293 411.477 60.136L415.957 61.032L415.189 83.944C408.192 83.0907 401.706 82.664 395.733 82.664C389.845 82.664 386.048 83.816 384.341 86.12C382.634 88.3387 381.781 92.9893 381.781 100.072C381.781 107.155 382.165 112.061 382.933 114.792C383.786 117.523 385.109 119.357 386.901 120.296C388.693 121.149 391.594 121.576 395.605 121.576L415.573 120.808L415.957 143.336ZM426.607 83.432V59.24H490.607V83.432H473.967V145H444.271V83.432H426.607ZM530.01 102.12C530.01 109.373 530.693 114.621 532.058 117.864C533.509 121.021 536.453 122.6 540.89 122.6C545.413 122.6 548.357 121.021 549.722 117.864C551.087 114.707 551.77 109.459 551.77 102.12C551.77 94.696 551.087 89.448 549.722 86.376C548.442 83.2187 545.541 81.64 541.018 81.64C536.495 81.64 533.509 83.2613 532.058 86.504C530.693 89.6613 530.01 94.8667 530.01 102.12ZM581.722 102.12C581.722 117.736 578.479 129.085 571.994 136.168C565.509 143.165 555.141 146.664 540.89 146.664C526.725 146.664 516.357 143.123 509.786 136.04C503.301 128.957 500.058 117.651 500.058 102.12C500.058 86.504 503.301 75.1973 509.786 68.2C516.271 61.1173 526.639 57.576 540.89 57.576C555.141 57.576 565.509 61.1173 571.994 68.2C578.479 75.1973 581.722 86.504 581.722 102.12ZM595.28 145V59.24H659.536V82.92H624.976V90.216H651.856V113.64H624.976V121.32H659.536V145H595.28Z" fill="url(#paint1_linear_2_92)"/>
<path d="M1.152 83.432H-0.848V85.432H1.152V83.432ZM1.152 59.24V57.24H-0.848V59.24H1.152ZM65.152 59.24H67.152V57.24H65.152V59.24ZM65.152 83.432V85.432H67.152V83.432H65.152ZM48.512 83.432V81.432H46.512V83.432H48.512ZM48.512 145V147H50.512V145H48.512ZM18.816 145H16.816V147H18.816V145ZM18.816 83.432H20.816V81.432H18.816V83.432ZM3.152 83.432V59.24H-0.848V83.432H3.152ZM1.152 61.24H65.152V57.24H1.152V61.24ZM63.152 59.24V83.432H67.152V59.24H63.152ZM65.152 81.432H48.512V85.432H65.152V81.432ZM46.512 83.432V145H50.512V83.432H46.512ZM48.512 143H18.816V147H48.512V143ZM20.816 145V83.432H16.816V145H20.816ZM18.816 81.432H1.152V85.432H18.816V81.432ZM77.895 145H75.895V147H77.895V145ZM77.895 59.24V57.24H75.895V59.24H77.895ZM107.591 59.24H109.591V57.24H107.591V59.24ZM107.591 145V147H109.591V145H107.591ZM79.895 145V59.24H75.895V145H79.895ZM77.895 61.24H107.591V57.24H77.895V61.24ZM105.591 59.24V145H109.591V59.24H105.591ZM107.591 143H77.895V147H107.591V143ZM185.542 143.336L186.018 145.278L187.569 144.898L187.542 143.302L185.542 143.336ZM135.878 142.696L134.937 144.461L134.948 144.467L134.96 144.473L135.878 142.696ZM124.742 129.128L122.855 129.791L122.859 129.802L122.863 129.814L124.742 129.128ZM129.222 67.048L127.689 65.7636L127.687 65.7656L129.222 67.048ZM181.062 60.136L180.662 62.0956L180.67 62.0972L181.062 60.136ZM185.542 61.032L187.541 61.099L187.598 59.4035L185.934 59.0708L185.542 61.032ZM184.774 83.944L184.532 85.9293L186.7 86.1937L186.773 84.011L184.774 83.944ZM153.926 86.12L155.511 87.3394L155.522 87.325L155.533 87.3105L153.926 86.12ZM152.518 114.792L150.593 115.333L150.6 115.361L150.609 115.389L152.518 114.792ZM156.486 120.296L155.558 122.068L155.592 122.085L155.626 122.102L156.486 120.296ZM165.19 121.576V123.576H165.228L165.267 123.575L165.19 121.576ZM185.158 120.808L187.158 120.774L187.123 118.731L185.081 118.809L185.158 120.808ZM185.066 141.394C176.179 143.573 167.08 144.664 157.766 144.664V148.664C167.396 148.664 176.815 147.536 186.018 145.278L185.066 141.394ZM157.766 144.664C148.432 144.664 141.506 143.352 136.796 140.919L134.96 144.473C140.49 147.33 148.156 148.664 157.766 148.664V144.664ZM136.819 140.931C132.202 138.469 128.784 134.372 126.621 128.442L122.863 129.814C125.308 136.513 129.314 141.462 134.937 144.461L136.819 140.931ZM126.629 128.465C124.522 122.468 123.414 113.646 123.414 101.864H119.414C119.414 113.805 120.525 123.159 122.855 129.791L126.629 128.465ZM123.414 101.864C123.414 84.9276 126.042 73.972 130.757 68.3304L127.687 65.7656C121.991 72.5826 119.414 84.8378 119.414 101.864H123.414ZM130.755 68.3324C135.453 62.7256 144.69 59.576 159.302 59.576V55.576C144.388 55.576 133.573 58.7411 127.689 65.7636L130.755 68.3324ZM159.302 59.576C165.271 59.576 172.384 60.4063 180.662 62.0956L181.462 58.1764C173.014 56.4524 165.621 55.576 159.302 55.576V59.576ZM180.67 62.0972L185.15 62.9932L185.934 59.0708L181.454 58.1748L180.67 62.0972ZM183.543 60.965L182.775 83.877L186.773 84.011L187.541 61.099L183.543 60.965ZM185.016 81.9587C177.952 81.0973 171.385 80.664 165.318 80.664V84.664C171.198 84.664 177.601 85.0841 184.532 85.9293L185.016 81.9587ZM165.318 80.664C162.263 80.664 159.628 80.9606 157.473 81.6141C155.318 82.268 153.51 83.3221 152.319 84.9295L155.533 87.3105C156.049 86.6139 156.992 85.94 158.635 85.4419C160.278 84.9434 162.485 84.664 165.318 84.664V80.664ZM152.341 84.9006C151.204 86.3789 150.488 88.4614 150.039 90.911C149.582 93.3985 149.366 96.463 149.366 100.072H153.366C153.366 96.5983 153.576 93.7962 153.973 91.6329C154.377 89.4319 154.942 88.0798 155.511 87.3394L152.341 84.9006ZM149.366 100.072C149.366 107.145 149.741 112.307 150.593 115.333L154.443 114.251C153.759 111.816 153.366 107.164 153.366 100.072H149.366ZM150.609 115.389C151.554 118.413 153.13 120.796 155.558 122.068L157.414 118.524C156.258 117.919 155.188 116.632 154.427 114.195L150.609 115.389ZM155.626 122.102C157.843 123.157 161.125 123.576 165.19 123.576V119.576C161.234 119.576 158.713 119.141 157.346 118.49L155.626 122.102ZM165.267 123.575L185.235 122.807L185.081 118.809L165.113 119.577L165.267 123.575ZM183.158 120.842L183.542 143.37L187.542 143.302L187.158 120.774L183.158 120.842ZM196.192 83.432H194.192V85.432H196.192V83.432ZM196.192 59.24V57.24H194.192V59.24H196.192ZM260.192 59.24H262.192V57.24H260.192V59.24ZM260.192 83.432V85.432H262.192V83.432H260.192ZM243.552 83.432V81.432H241.552V83.432H243.552ZM243.552 145V147H245.552V145H243.552ZM213.856 145H211.856V147H213.856V145ZM213.856 83.432H215.856V81.432H213.856V83.432ZM198.192 83.432V59.24H194.192V83.432H198.192ZM196.192 61.24H260.192V57.24H196.192V61.24ZM258.192 59.24V83.432H262.192V59.24H258.192ZM260.192 81.432H243.552V85.432H260.192V81.432ZM241.552 83.432V145H245.552V83.432H241.552ZM243.552 143H213.856V147H243.552V143ZM215.856 145V83.432H211.856V145H215.856ZM213.856 81.432H196.192V85.432H213.856V81.432ZM261.33 145L259.377 144.569L258.84 147H261.33V145ZM280.274 59.24V57.24H278.668L278.321 58.8086L280.274 59.24ZM325.202 59.24L327.153 58.8003L326.801 57.24H325.202V59.24ZM344.53 145V147H347.031L346.481 144.56L344.53 145ZM314.578 145L312.636 145.479L313.012 147H314.578V145ZM312.146 135.144L314.088 134.665L313.712 133.144H312.146V135.144ZM292.562 135.144V133.144H290.935L290.604 134.737L292.562 135.144ZM290.514 145V147H292.141L292.472 145.407L290.514 145ZM301.266 82.536V80.536H299.565L299.292 82.2154L301.266 82.536ZM296.402 112.488L294.428 112.167L294.051 114.488H296.402V112.488ZM309.074 112.488V114.488H311.405L311.051 112.184L309.074 112.488ZM304.466 82.536L306.443 82.2319L306.182 80.536H304.466V82.536ZM263.283 145.431L282.227 59.6714L278.321 58.8086L259.377 144.569L263.283 145.431ZM280.274 61.24H325.202V57.24H280.274V61.24ZM323.251 59.6797L342.579 145.44L346.481 144.56L327.153 58.8003L323.251 59.6797ZM344.53 143H314.578V147H344.53V143ZM316.52 144.521L314.088 134.665L310.204 135.623L312.636 145.479L316.52 144.521ZM312.146 133.144H292.562V137.144H312.146V133.144ZM290.604 134.737L288.556 144.593L292.472 145.407L294.52 135.551L290.604 134.737ZM290.514 143H261.33V147H290.514V143ZM299.292 82.2154L294.428 112.167L298.376 112.809L303.24 82.8566L299.292 82.2154ZM296.402 114.488H309.074V110.488H296.402V114.488ZM311.051 112.184L306.443 82.2319L302.489 82.8401L307.097 112.792L311.051 112.184ZM304.466 80.536H301.266V84.536H304.466V80.536ZM415.957 143.336L416.433 145.278L417.984 144.898L417.957 143.302L415.957 143.336ZM366.293 142.696L365.352 144.461L365.363 144.467L365.375 144.473L366.293 142.696ZM355.157 129.128L353.27 129.791L353.274 129.802L353.278 129.814L355.157 129.128ZM359.637 67.048L358.104 65.7636L358.102 65.7656L359.637 67.048ZM411.477 60.136L411.077 62.0956L411.085 62.0972L411.477 60.136ZM415.957 61.032L417.956 61.099L418.013 59.4035L416.349 59.0708L415.957 61.032ZM415.189 83.944L414.947 85.9293L417.115 86.1937L417.188 84.011L415.189 83.944ZM384.341 86.12L385.926 87.3394L385.937 87.325L385.948 87.3105L384.341 86.12ZM382.933 114.792L381.008 115.333L381.015 115.361L381.024 115.389L382.933 114.792ZM386.901 120.296L385.973 122.068L386.007 122.085L386.041 122.102L386.901 120.296ZM395.605 121.576V123.576H395.643L395.682 123.575L395.605 121.576ZM415.573 120.808L417.573 120.774L417.538 118.731L415.496 118.809L415.573 120.808ZM415.481 141.394C406.594 143.573 397.495 144.664 388.181 144.664V148.664C397.811 148.664 407.23 147.536 416.433 145.278L415.481 141.394ZM388.181 144.664C378.847 144.664 371.921 143.352 367.211 140.919L365.375 144.473C370.905 147.33 378.571 148.664 388.181 148.664V144.664ZM367.234 140.931C362.617 138.469 359.199 134.372 357.036 128.442L353.278 129.814C355.723 136.513 359.729 141.462 365.352 144.461L367.234 140.931ZM357.044 128.465C354.937 122.468 353.829 113.646 353.829 101.864H349.829C349.829 113.805 350.94 123.159 353.27 129.791L357.044 128.465ZM353.829 101.864C353.829 84.9276 356.457 73.972 361.172 68.3304L358.102 65.7656C352.406 72.5826 349.829 84.8378 349.829 101.864H353.829ZM361.17 68.3324C365.868 62.7256 375.105 59.576 389.717 59.576V55.576C374.803 55.576 363.988 58.7411 358.104 65.7636L361.17 68.3324ZM389.717 59.576C395.686 59.576 402.799 60.4063 411.077 62.0956L411.877 58.1764C403.429 56.4524 396.036 55.576 389.717 55.576V59.576ZM411.085 62.0972L415.565 62.9932L416.349 59.0708L411.869 58.1748L411.085 62.0972ZM413.958 60.965L413.19 83.877L417.188 84.011L417.956 61.099L413.958 60.965ZM415.431 81.9587C408.367 81.0973 401.8 80.664 395.733 80.664V84.664C401.613 84.664 408.016 85.0841 414.947 85.9293L415.431 81.9587ZM395.733 80.664C392.678 80.664 390.043 80.9606 387.888 81.6141C385.733 82.268 383.925 83.3221 382.734 84.9295L385.948 87.3105C386.464 86.6139 387.407 85.94 389.05 85.4419C390.693 84.9434 392.9 84.664 395.733 84.664V80.664ZM382.756 84.9006C381.619 86.3789 380.903 88.4614 380.454 90.911C379.997 93.3985 379.781 96.463 379.781 100.072H383.781C383.781 96.5983 383.991 93.7962 384.388 91.6329C384.792 89.4319 385.357 88.0798 385.926 87.3394L382.756 84.9006ZM379.781 100.072C379.781 107.145 380.156 112.307 381.008 115.333L384.858 114.251C384.174 111.816 383.781 107.164 383.781 100.072H379.781ZM381.024 115.389C381.969 118.413 383.545 120.796 385.973 122.068L387.829 118.524C386.673 117.919 385.603 116.632 384.842 114.195L381.024 115.389ZM386.041 122.102C388.258 123.157 391.54 123.576 395.605 123.576V119.576C391.649 119.576 389.128 119.141 387.761 118.49L386.041 122.102ZM395.682 123.575L415.65 122.807L415.496 118.809L395.528 119.577L395.682 123.575ZM413.573 120.842L413.957 143.37L417.957 143.302L417.573 120.774L413.573 120.842ZM426.607 83.432H424.607V85.432H426.607V83.432ZM426.607 59.24V57.24H424.607V59.24H426.607ZM490.607 59.24H492.607V57.24H490.607V59.24ZM490.607 83.432V85.432H492.607V83.432H490.607ZM473.967 83.432V81.432H471.967V83.432H473.967ZM473.967 145V147H475.967V145H473.967ZM444.271 145H442.271V147H444.271V145ZM444.271 83.432H446.271V81.432H444.271V83.432ZM428.607 83.432V59.24H424.607V83.432H428.607ZM426.607 61.24H490.607V57.24H426.607V61.24ZM488.607 59.24V83.432H492.607V59.24H488.607ZM490.607 81.432H473.967V85.432H490.607V81.432ZM471.967 83.432V145H475.967V83.432H471.967ZM473.967 143H444.271V147H473.967V143ZM446.271 145V83.432H442.271V145H446.271ZM444.271 81.432H426.607V85.432H444.271V81.432ZM532.058 117.864L530.215 118.64L530.227 118.67L530.241 118.699L532.058 117.864ZM549.722 86.376L547.869 87.1274L547.881 87.1581L547.894 87.1883L549.722 86.376ZM532.058 86.504L530.232 85.6873L530.227 85.6987L530.222 85.7102L532.058 86.504ZM571.994 136.168L573.461 137.528L573.469 137.519L571.994 136.168ZM509.786 136.04L508.311 137.391L508.32 137.4L509.786 136.04ZM509.786 68.2L511.253 69.5595L511.261 69.5506L509.786 68.2ZM571.994 68.2L570.519 69.5507L570.527 69.5595L571.994 68.2ZM528.01 102.12C528.01 109.417 528.685 115.007 530.215 118.64L533.901 117.088C532.7 114.236 532.01 109.33 532.01 102.12H528.01ZM530.241 118.699C531.14 120.657 532.537 122.175 534.409 123.179C536.251 124.167 538.446 124.6 540.89 124.6V120.6C538.897 120.6 537.401 120.244 536.299 119.653C535.227 119.079 534.427 118.229 533.875 117.029L530.241 118.699ZM540.89 124.6C543.37 124.6 545.588 124.169 547.435 123.179C549.317 122.169 550.702 120.637 551.558 118.658L547.886 117.07C547.377 118.248 546.607 119.084 545.545 119.653C544.448 120.242 542.933 120.6 540.89 120.6V124.6ZM551.558 118.658C553.098 115.097 553.77 109.492 553.77 102.12H549.77C549.77 109.426 549.077 114.316 547.886 117.07L551.558 118.658ZM553.77 102.12C553.77 94.6742 553.1 89.0526 551.55 85.5637L547.894 87.1883C549.074 89.8434 549.77 94.7178 549.77 102.12H553.77ZM551.576 85.6246C550.768 83.6317 549.413 82.0852 547.542 81.0672C545.71 80.0702 543.496 79.64 541.018 79.64V83.64C543.063 83.64 544.561 83.9991 545.63 84.5808C546.661 85.1415 547.396 85.963 547.869 87.1274L551.576 85.6246ZM541.018 79.64C538.53 79.64 536.299 80.0847 534.432 81.0983C532.534 82.1284 531.128 83.6846 530.232 85.6873L533.884 87.3207C534.438 86.0807 535.251 85.2049 536.34 84.6137C537.46 84.006 538.984 83.64 541.018 83.64V79.64ZM530.222 85.7102C528.683 89.2693 528.01 94.8298 528.01 102.12H532.01C532.01 94.9036 532.702 90.0533 533.894 87.2978L530.222 85.7102ZM579.722 102.12C579.722 117.531 576.51 128.275 570.519 134.817L573.469 137.519C580.449 129.896 583.722 117.941 583.722 102.12H579.722ZM570.527 134.808C564.574 141.232 554.859 144.664 540.89 144.664V148.664C555.422 148.664 566.444 145.099 573.461 137.528L570.527 134.808ZM540.89 144.664C527.019 144.664 517.297 141.196 511.252 134.68L508.32 137.4C515.416 145.05 526.43 148.664 540.89 148.664V144.664ZM511.261 134.689C505.269 128.145 502.058 117.443 502.058 102.12H498.058C498.058 117.859 501.332 129.769 508.311 137.391L511.261 134.689ZM502.058 102.12C502.058 86.7056 505.272 76.0129 511.253 69.5595L508.319 66.8405C501.33 74.3818 498.058 86.3024 498.058 102.12H502.058ZM511.261 69.5506C517.216 63.0475 526.927 59.576 540.89 59.576V55.576C526.352 55.576 515.327 59.1872 508.311 66.8493L511.261 69.5506ZM540.89 59.576C554.853 59.576 564.564 63.0475 570.519 69.5506L573.469 66.8493C566.453 59.1872 555.428 55.576 540.89 55.576V59.576ZM570.527 69.5595C576.508 76.0129 579.722 86.7056 579.722 102.12H583.722C583.722 86.3024 580.45 74.3818 573.461 66.8405L570.527 69.5595ZM595.28 145H593.28V147H595.28V145ZM595.28 59.24V57.24H593.28V59.24H595.28ZM659.536 59.24H661.536V57.24H659.536V59.24ZM659.536 82.92V84.92H661.536V82.92H659.536ZM624.976 82.92V80.92H622.976V82.92H624.976ZM624.976 90.216H622.976V92.216H624.976V90.216ZM651.856 90.216H653.856V88.216H651.856V90.216ZM651.856 113.64V115.64H653.856V113.64H651.856ZM624.976 113.64V111.64H622.976V113.64H624.976ZM624.976 121.32H622.976V123.32H624.976V121.32ZM659.536 121.32H661.536V119.32H659.536V121.32ZM659.536 145V147H661.536V145H659.536ZM597.28 145V59.24H593.28V145H597.28ZM595.28 61.24H659.536V57.24H595.28V61.24ZM657.536 59.24V82.92H661.536V59.24H657.536ZM659.536 80.92H624.976V84.92H659.536V80.92ZM622.976 82.92V90.216H626.976V82.92H622.976ZM624.976 92.216H651.856V88.216H624.976V92.216ZM649.856 90.216V113.64H653.856V90.216H649.856ZM651.856 111.64H624.976V115.64H651.856V111.64ZM622.976 113.64V121.32H626.976V113.64H622.976ZM624.976 123.32H659.536V119.32H624.976V123.32ZM657.536 121.32V145H661.536V121.32H657.536ZM659.536 143H595.28V147H659.536V143Z" fill="url(#paint2_linear_2_92)" mask="url(#path-2-outside-1_2_92)"/>
<defs>
<linearGradient id="paint0_linear_2_92" x1="347.616" y1="211" x2="347.616" y2="16" gradientUnits="userSpaceOnUse">
<stop stop-color="#3D015D"/>
<stop offset="0.2" stop-color="#8B5A9E"/>
<stop offset="0.4" stop-color="#3D015D"/>
<stop offset="0.6" stop-color="#8B5A9E"/>
<stop offset="0.8" stop-color="#3D015D"/>
<stop offset="1" stop-color="#8B5A9E"/>
</linearGradient>
<linearGradient id="paint1_linear_2_92" x1="331.616" y1="195" x2="331.616" y2="7.14486e-07" gradientUnits="userSpaceOnUse">
<stop stop-color="#FFDFFF"/>
<stop offset="0.142857" stop-color="#D643EC"/>
<stop offset="0.285714" stop-color="#3D015D"/>
<stop offset="0.428571" stop-color="#D00C85"/>
<stop offset="0.571429" stop-color="#FFDFFF"/>
<stop offset="0.714286" stop-color="#CD77FB"/>
<stop offset="0.857143" stop-color="#A052FA"/>
<stop offset="1" stop-color="#3425A2"/>
</linearGradient>
<linearGradient id="paint2_linear_2_92" x1="331" y1="195" x2="331" y2="2.05565e-06" gradientUnits="userSpaceOnUse">
<stop stop-color="#FF53C3"/>
<stop offset="0.166667" stop-color="white"/>
<stop offset="0.333333" stop-color="#FF7FD6"/>
<stop offset="0.5" stop-color="#FF53C3"/>
<stop offset="0.666667" stop-color="#FFDFFF"/>
<stop offset="0.833333" stop-color="#FF53C3"/>
<stop offset="1" stop-color="#FFDFFF"/>
</linearGradient>
</defs>
</svg>
