<svg width="823" height="68" viewBox="0 0 823 68" fill="none" xmlns="http://www.w3.org/2000/svg">
<mask id="path-1-outside-1_155_32425" maskUnits="userSpaceOnUse" x="-2.5" y="-1.5" width="827" height="72" fill="black">
<rect fill="white" x="-2.5" y="-1.5" width="827" height="72"/>
<path d="M25.628 52.868H22.652V66.5H0.38V2.18H25.628C35.804 2.18 43.196 3.94 47.804 7.46C52.476 10.98 54.812 17.604 54.812 27.332C54.812 36.996 52.476 43.684 47.804 47.396C43.132 51.044 35.74 52.868 25.628 52.868ZM22.652 35.3H24.668C27.42 35.3 29.372 34.692 30.524 33.476C31.74 32.26 32.348 30.18 32.348 27.236C32.348 24.292 31.772 22.308 30.62 21.284C29.532 20.26 27.548 19.748 24.668 19.748H22.652V35.3ZM57.8113 66.5L72.0193 2.18H105.715L120.211 66.5H97.7473L95.9233 59.108H81.2353L79.6993 66.5H57.8113ZM87.7633 19.652L84.1153 42.116H93.6193L90.1633 19.652H87.7633ZM180.696 28.676V64.58C169.112 66.436 160.536 67.364 154.968 67.364C149.4 67.364 144.632 66.756 140.664 65.54C136.76 64.26 133.688 62.18 131.448 59.3C129.208 56.42 127.64 53.028 126.744 49.124C125.912 45.22 125.496 40.26 125.496 34.244C125.496 21.892 127.8 13.252 132.408 8.324C137.016 3.396 144.792 0.931997 155.736 0.931997C159 0.931997 162.68 1.22 166.776 1.796C170.872 2.308 174.136 2.82 176.568 3.332L180.216 4.196V20.996C171 20.164 164.44 19.748 160.536 19.748C156.696 19.748 154.168 19.94 152.952 20.324C151.8 20.644 150.872 21.06 150.168 21.572C149.464 22.02 148.952 22.948 148.632 24.356C148.184 26.34 147.96 29.828 147.96 34.82C147.96 39.812 148.536 43.46 149.688 45.764C150.84 48.004 153.176 49.124 156.696 49.124L159.96 49.028V44.228H157.08L156.984 28.676H180.696ZM191.941 66.5V2.18H240.133V19.94H214.213V25.412H234.373V42.98H214.213V48.74H240.133V66.5H191.941ZM276.774 66.5V2.18H298.662L313.446 26.564H314.79V2.18H337.062V66.5H315.078L300.486 40.292H299.046V66.5H276.774ZM369.747 34.34C369.747 39.78 370.259 43.716 371.283 46.148C372.371 48.516 374.579 49.7 377.907 49.7C381.299 49.7 383.507 48.516 384.531 46.148C385.555 43.78 386.067 39.844 386.067 34.34C386.067 28.772 385.555 24.836 384.531 22.532C383.571 20.164 381.396 18.98 378.003 18.98C374.611 18.98 372.371 20.196 371.283 22.628C370.259 24.996 369.747 28.9 369.747 34.34ZM408.532 34.34C408.532 46.052 406.1 54.564 401.235 59.876C396.372 65.124 388.595 67.748 377.907 67.748C367.283 67.748 359.507 65.092 354.579 59.78C349.715 54.468 347.283 45.988 347.283 34.34C347.283 22.628 349.715 14.148 354.579 8.9C359.443 3.588 367.219 0.931997 377.907 0.931997C388.595 0.931997 396.372 3.588 401.235 8.9C406.1 14.148 408.532 22.628 408.532 34.34ZM415.559 20.324V2.18H463.559V20.324H451.079V66.5H428.807V20.324H415.559ZM499.501 66.5V2.18H545.869V20.324H521.773V30.692H540.109V48.836H521.773V66.5H499.501ZM575.6 34.34C575.6 39.78 576.112 43.716 577.136 46.148C578.224 48.516 580.432 49.7 583.76 49.7C587.152 49.7 589.36 48.516 590.384 46.148C591.408 43.78 591.92 39.844 591.92 34.34C591.92 28.772 591.408 24.836 590.384 22.532C589.424 20.164 587.248 18.98 583.856 18.98C580.464 18.98 578.224 20.196 577.136 22.628C576.112 24.996 575.6 28.9 575.6 34.34ZM614.384 34.34C614.384 46.052 611.952 54.564 607.088 59.876C602.224 65.124 594.448 67.748 583.76 67.748C573.136 67.748 565.36 65.092 560.432 59.78C555.568 54.468 553.136 45.988 553.136 34.34C553.136 22.628 555.568 14.148 560.432 8.9C565.296 3.588 573.072 0.931997 583.76 0.931997C594.448 0.931997 602.224 3.588 607.088 8.9C611.952 14.148 614.384 22.628 614.384 34.34ZM646.44 2.18V44.324C646.44 46.18 646.888 47.492 647.784 48.26C648.744 49.028 650.312 49.412 652.488 49.412C654.664 49.412 656.2 49.028 657.096 48.26C657.992 47.492 658.44 46.18 658.44 44.324V2.18H680.712V43.076C680.712 52.164 678.44 58.564 673.896 62.276C669.352 65.924 662.184 67.748 652.392 67.748C642.664 67.748 635.528 65.956 630.984 62.372C626.44 58.788 624.168 52.484 624.168 43.46V2.18H646.44ZM691.812 66.5V2.18H713.7L728.484 26.564H729.828V2.18H752.101V66.5H730.116L715.524 40.292H714.084V66.5H691.812ZM791.794 66.5H763.666V2.18H790.834C801.906 2.18 809.874 4.676 814.738 9.668C819.602 14.66 822.034 22.66 822.034 33.668C822.034 44.612 819.698 52.836 815.026 58.34C810.354 63.78 802.61 66.5 791.794 66.5ZM799.57 34.724C799.57 28.964 798.962 25.124 797.746 23.204C796.594 21.284 793.97 20.324 789.874 20.324H785.938V48.356H789.874C793.202 48.356 795.666 47.524 797.266 45.86C798.802 44.196 799.57 40.484 799.57 34.724Z"/>
</mask>
<path d="M25.628 52.868H22.652V66.5H0.38V2.18H25.628C35.804 2.18 43.196 3.94 47.804 7.46C52.476 10.98 54.812 17.604 54.812 27.332C54.812 36.996 52.476 43.684 47.804 47.396C43.132 51.044 35.74 52.868 25.628 52.868ZM22.652 35.3H24.668C27.42 35.3 29.372 34.692 30.524 33.476C31.74 32.26 32.348 30.18 32.348 27.236C32.348 24.292 31.772 22.308 30.62 21.284C29.532 20.26 27.548 19.748 24.668 19.748H22.652V35.3ZM57.8113 66.5L72.0193 2.18H105.715L120.211 66.5H97.7473L95.9233 59.108H81.2353L79.6993 66.5H57.8113ZM87.7633 19.652L84.1153 42.116H93.6193L90.1633 19.652H87.7633ZM180.696 28.676V64.58C169.112 66.436 160.536 67.364 154.968 67.364C149.4 67.364 144.632 66.756 140.664 65.54C136.76 64.26 133.688 62.18 131.448 59.3C129.208 56.42 127.64 53.028 126.744 49.124C125.912 45.22 125.496 40.26 125.496 34.244C125.496 21.892 127.8 13.252 132.408 8.324C137.016 3.396 144.792 0.931997 155.736 0.931997C159 0.931997 162.68 1.22 166.776 1.796C170.872 2.308 174.136 2.82 176.568 3.332L180.216 4.196V20.996C171 20.164 164.44 19.748 160.536 19.748C156.696 19.748 154.168 19.94 152.952 20.324C151.8 20.644 150.872 21.06 150.168 21.572C149.464 22.02 148.952 22.948 148.632 24.356C148.184 26.34 147.96 29.828 147.96 34.82C147.96 39.812 148.536 43.46 149.688 45.764C150.84 48.004 153.176 49.124 156.696 49.124L159.96 49.028V44.228H157.08L156.984 28.676H180.696ZM191.941 66.5V2.18H240.133V19.94H214.213V25.412H234.373V42.98H214.213V48.74H240.133V66.5H191.941ZM276.774 66.5V2.18H298.662L313.446 26.564H314.79V2.18H337.062V66.5H315.078L300.486 40.292H299.046V66.5H276.774ZM369.747 34.34C369.747 39.78 370.259 43.716 371.283 46.148C372.371 48.516 374.579 49.7 377.907 49.7C381.299 49.7 383.507 48.516 384.531 46.148C385.555 43.78 386.067 39.844 386.067 34.34C386.067 28.772 385.555 24.836 384.531 22.532C383.571 20.164 381.396 18.98 378.003 18.98C374.611 18.98 372.371 20.196 371.283 22.628C370.259 24.996 369.747 28.9 369.747 34.34ZM408.532 34.34C408.532 46.052 406.1 54.564 401.235 59.876C396.372 65.124 388.595 67.748 377.907 67.748C367.283 67.748 359.507 65.092 354.579 59.78C349.715 54.468 347.283 45.988 347.283 34.34C347.283 22.628 349.715 14.148 354.579 8.9C359.443 3.588 367.219 0.931997 377.907 0.931997C388.595 0.931997 396.372 3.588 401.235 8.9C406.1 14.148 408.532 22.628 408.532 34.34ZM415.559 20.324V2.18H463.559V20.324H451.079V66.5H428.807V20.324H415.559ZM499.501 66.5V2.18H545.869V20.324H521.773V30.692H540.109V48.836H521.773V66.5H499.501ZM575.6 34.34C575.6 39.78 576.112 43.716 577.136 46.148C578.224 48.516 580.432 49.7 583.76 49.7C587.152 49.7 589.36 48.516 590.384 46.148C591.408 43.78 591.92 39.844 591.92 34.34C591.92 28.772 591.408 24.836 590.384 22.532C589.424 20.164 587.248 18.98 583.856 18.98C580.464 18.98 578.224 20.196 577.136 22.628C576.112 24.996 575.6 28.9 575.6 34.34ZM614.384 34.34C614.384 46.052 611.952 54.564 607.088 59.876C602.224 65.124 594.448 67.748 583.76 67.748C573.136 67.748 565.36 65.092 560.432 59.78C555.568 54.468 553.136 45.988 553.136 34.34C553.136 22.628 555.568 14.148 560.432 8.9C565.296 3.588 573.072 0.931997 583.76 0.931997C594.448 0.931997 602.224 3.588 607.088 8.9C611.952 14.148 614.384 22.628 614.384 34.34ZM646.44 2.18V44.324C646.44 46.18 646.888 47.492 647.784 48.26C648.744 49.028 650.312 49.412 652.488 49.412C654.664 49.412 656.2 49.028 657.096 48.26C657.992 47.492 658.44 46.18 658.44 44.324V2.18H680.712V43.076C680.712 52.164 678.44 58.564 673.896 62.276C669.352 65.924 662.184 67.748 652.392 67.748C642.664 67.748 635.528 65.956 630.984 62.372C626.44 58.788 624.168 52.484 624.168 43.46V2.18H646.44ZM691.812 66.5V2.18H713.7L728.484 26.564H729.828V2.18H752.101V66.5H730.116L715.524 40.292H714.084V66.5H691.812ZM791.794 66.5H763.666V2.18H790.834C801.906 2.18 809.874 4.676 814.738 9.668C819.602 14.66 822.034 22.66 822.034 33.668C822.034 44.612 819.698 52.836 815.026 58.34C810.354 63.78 802.61 66.5 791.794 66.5ZM799.57 34.724C799.57 28.964 798.962 25.124 797.746 23.204C796.594 21.284 793.97 20.324 789.874 20.324H785.938V48.356H789.874C793.202 48.356 795.666 47.524 797.266 45.86C798.802 44.196 799.57 40.484 799.57 34.724Z" fill="url(#paint0_linear_155_32425)"/>
<path d="M22.652 52.868V50.868H20.652V52.868H22.652ZM22.652 66.5V68.5H24.652V66.5H22.652ZM0.38 66.5H-1.62V68.5H0.38V66.5ZM0.38 2.18V0.18H-1.62V2.18H0.38ZM47.804 7.46L46.5899 9.04938L46.6005 9.05737L47.804 7.46ZM47.804 47.396L49.0349 48.9724L49.0415 48.9672L49.0482 48.9619L47.804 47.396ZM22.652 35.3H20.652V37.3H22.652V35.3ZM30.524 33.476L29.1098 32.0618L29.0907 32.0809L29.0721 32.1005L30.524 33.476ZM30.62 21.284L29.2493 22.7404L29.27 22.7599L29.2913 22.7788L30.62 21.284ZM22.652 19.748V17.748H20.652V19.748H22.652ZM25.628 50.868H22.652V54.868H25.628V50.868ZM20.652 52.868V66.5H24.652V52.868H20.652ZM22.652 64.5H0.38V68.5H22.652V64.5ZM2.38 66.5V2.18H-1.62V66.5H2.38ZM0.38 4.18H25.628V0.18H0.38V4.18ZM25.628 4.18C35.6605 4.18 42.5088 5.93185 46.5899 9.04934L49.0181 5.87066C43.8832 1.94815 35.9475 0.18 25.628 0.18V4.18ZM46.6005 9.05737C50.5141 12.006 52.812 17.8193 52.812 27.332H56.812C56.812 17.3887 54.4379 9.95403 49.0075 5.86263L46.6005 9.05737ZM52.812 27.332C52.812 36.7615 50.5223 42.6818 46.5599 45.8301L49.0482 48.9619C54.4297 44.6862 56.812 37.2305 56.812 27.332H52.812ZM46.5731 45.8196C42.4256 49.0581 35.579 50.868 25.628 50.868V54.868C35.901 54.868 43.8384 53.0299 49.0349 48.9724L46.5731 45.8196ZM22.652 37.3H24.668V33.3H22.652V37.3ZM24.668 37.3C27.6304 37.3 30.2636 36.6589 31.9759 34.8515L29.0721 32.1005C28.4804 32.7251 27.2096 33.3 24.668 33.3V37.3ZM31.9382 34.8902C33.721 33.1074 34.348 30.3576 34.348 27.236H30.348C30.348 30.0024 29.759 31.4126 29.1098 32.0618L31.9382 34.8902ZM34.348 27.236C34.348 24.1905 33.7843 21.4208 31.9487 19.7892L29.2913 22.7788C29.7597 23.1952 30.348 24.3935 30.348 27.236H34.348ZM31.9907 19.8276C30.3124 18.248 27.6434 17.748 24.668 17.748V21.748C27.4526 21.748 28.7516 22.272 29.2493 22.7404L31.9907 19.8276ZM24.668 17.748H22.652V21.748H24.668V17.748ZM20.652 19.748V35.3H24.652V19.748H20.652ZM57.8113 66.5L55.8583 66.0686L55.3212 68.5H57.8113V66.5ZM72.0193 2.18V0.18H70.4128L70.0663 1.74861L72.0193 2.18ZM105.715 2.18L107.666 1.74028L107.315 0.18H105.715V2.18ZM120.211 66.5V68.5H122.712L122.162 66.0603L120.211 66.5ZM97.7473 66.5L95.8055 66.9791L96.1808 68.5H97.7473V66.5ZM95.9233 59.108L97.865 58.6289L97.4897 57.108H95.9233V59.108ZM81.2353 59.108V57.108H79.6081L79.2771 58.7011L81.2353 59.108ZM79.6992 66.5V68.5H81.3264L81.6574 66.9069L79.6992 66.5ZM87.7633 19.652V17.652H86.0618L85.7891 19.3314L87.7633 19.652ZM84.1153 42.116L82.1411 41.7954L81.7643 44.116H84.1153V42.116ZM93.6193 42.116V44.116H95.9505L95.596 41.8119L93.6193 42.116ZM90.1633 19.652L92.14 19.3479L91.8791 17.652H90.1633V19.652ZM59.7642 66.9314L73.9722 2.61139L70.0663 1.74861L55.8583 66.0686L59.7642 66.9314ZM72.0193 4.18H105.715V0.18H72.0193V4.18ZM103.764 2.61972L118.26 66.9397L122.162 66.0603L107.666 1.74028L103.764 2.61972ZM120.211 64.5H97.7473V68.5H120.211V64.5ZM99.689 66.0209L97.865 58.6289L93.9815 59.5871L95.8055 66.9791L99.689 66.0209ZM95.9233 57.108H81.2353V61.108H95.9233V57.108ZM79.2771 58.7011L77.7411 66.0931L81.6574 66.9069L83.1934 59.5149L79.2771 58.7011ZM79.6992 64.5H57.8113V68.5H79.6992V64.5ZM85.7891 19.3314L82.1411 41.7954L86.0894 42.4366L89.7374 19.9726L85.7891 19.3314ZM84.1153 44.116H93.6193V40.116H84.1153V44.116ZM95.596 41.8119L92.14 19.3479L88.1865 19.9561L91.6425 42.4201L95.596 41.8119ZM90.1633 17.652H87.7633V21.652H90.1633V17.652ZM180.696 28.676H182.696V26.676H180.696V28.676ZM180.696 64.58L181.012 66.5548L182.696 66.2851V64.58H180.696ZM140.664 65.54L140.041 67.4405L140.059 67.4465L140.078 67.4522L140.664 65.54ZM131.448 59.3L129.869 60.5279L131.448 59.3ZM126.744 49.124L124.788 49.5409L124.791 49.5562L124.794 49.5714L126.744 49.124ZM132.408 8.324L133.869 9.68999L132.408 8.324ZM166.776 1.796L166.497 3.77651L166.512 3.77865L166.528 3.78055L166.776 1.796ZM176.568 3.33199L177.029 1.38583L177.004 1.38006L176.98 1.37489L176.568 3.33199ZM180.216 4.196H182.216V2.61435L180.677 2.24984L180.216 4.196ZM180.216 20.996L180.036 22.9879L182.216 23.1847V20.996H180.216ZM152.952 20.324L153.487 22.251L153.521 22.2417L153.554 22.2312L152.952 20.324ZM150.168 21.572L151.242 23.2593L151.294 23.226L151.344 23.1895L150.168 21.572ZM148.632 24.356L146.681 23.9128L146.681 23.9155L148.632 24.356ZM149.688 45.764L147.899 46.6584L147.904 46.6686L147.909 46.6787L149.688 45.764ZM156.696 49.124V51.124H156.725L156.755 51.1231L156.696 49.124ZM159.96 49.028L160.019 51.0271L161.96 50.97V49.028H159.96ZM159.96 44.228H161.96V42.228H159.96V44.228ZM157.08 44.228L155.08 44.2403L155.092 46.228H157.08V44.228ZM156.984 28.676V26.676H154.971L154.984 28.6883L156.984 28.676ZM178.696 28.676V64.58H182.696V28.676H178.696ZM180.379 62.6052C168.812 64.4586 160.367 65.364 154.968 65.364V69.364C160.704 69.364 169.412 68.4134 181.012 66.5548L180.379 62.6052ZM154.968 65.364C149.535 65.364 144.976 64.7696 141.25 63.6278L140.078 67.4522C144.288 68.7424 149.264 69.364 154.968 69.364V65.364ZM141.287 63.6395C137.712 62.4674 134.992 60.5991 133.026 58.0721L129.869 60.5279C132.384 63.7609 135.808 66.0526 140.041 67.4405L141.287 63.6395ZM133.026 58.0721C130.982 55.4439 129.53 52.3247 128.693 48.6766L124.794 49.5714C125.749 53.7313 127.433 57.3961 129.869 60.5279L133.026 58.0721ZM128.7 48.7071C127.908 44.9904 127.496 40.1828 127.496 34.244H123.496C123.496 40.3372 123.916 45.4496 124.788 49.5409L128.7 48.7071ZM127.496 34.244C127.496 22.0211 129.799 14.0418 133.869 9.68999L130.947 6.95801C125.8 12.4622 123.496 21.7629 123.496 34.244H127.496ZM133.869 9.68999C137.919 5.35819 145.012 2.932 155.736 2.932V-1.068C144.571 -1.068 136.112 1.4338 130.947 6.95801L133.869 9.68999ZM155.736 2.932C158.886 2.932 162.47 3.21024 166.497 3.77651L167.054 -0.184517C162.889 -0.770241 159.114 -1.068 155.736 -1.068V2.932ZM166.528 3.78055C170.599 4.28952 173.802 4.79349 176.156 5.2891L176.98 1.37489C174.47 0.846504 171.144 0.326473 167.024 -0.188557L166.528 3.78055ZM176.107 5.27816L179.755 6.14215L180.677 2.24984L177.029 1.38583L176.107 5.27816ZM178.216 4.196V20.996H182.216V4.196H178.216ZM180.396 19.0041C171.178 18.172 164.539 17.748 160.536 17.748V21.748C164.341 21.748 170.821 22.156 180.036 22.9879L180.396 19.0041ZM160.536 17.748C158.588 17.748 156.941 17.7965 155.608 17.8977C154.31 17.9963 153.186 18.1528 152.349 18.4168L153.554 22.2312C153.934 22.1112 154.681 21.9797 155.911 21.8863C157.106 21.7955 158.643 21.748 160.536 21.748V17.748ZM152.416 18.397C151.114 18.7587 149.946 19.2601 148.991 19.9545L151.344 23.1895C151.797 22.8599 152.485 22.5293 153.487 22.251L152.416 18.397ZM149.094 19.8847C147.715 20.7624 147.039 22.3393 146.681 23.9128L150.582 24.7992C150.864 23.5566 151.213 23.2776 151.242 23.2593L149.094 19.8847ZM146.681 23.9155C146.178 26.141 145.96 29.8321 145.96 34.82H149.96C149.96 29.8239 150.189 26.539 150.583 24.7965L146.681 23.9155ZM145.96 34.82C145.96 39.8838 146.531 43.9219 147.899 46.6584L151.477 44.8696C150.541 42.9981 149.96 39.7402 149.96 34.82H145.96ZM147.909 46.6787C149.536 49.8416 152.767 51.124 156.696 51.124V47.124C153.585 47.124 152.144 46.1664 151.466 44.8493L147.909 46.6787ZM156.755 51.1231L160.019 51.0271L159.901 47.0289L156.637 47.1249L156.755 51.1231ZM161.96 49.028V44.228H157.96V49.028H161.96ZM159.96 42.228H157.08V46.228H159.96V42.228ZM159.08 44.2157L158.984 28.6637L154.984 28.6883L155.08 44.2403L159.08 44.2157ZM156.984 30.676H180.696V26.676H156.984V30.676ZM191.941 66.5H189.941V68.5H191.941V66.5ZM191.941 2.18V0.18H189.941V2.18H191.941ZM240.133 2.18H242.133V0.18H240.133V2.18ZM240.133 19.94V21.94H242.133V19.94H240.133ZM214.213 19.94V17.94H212.213V19.94H214.213ZM214.213 25.412H212.213V27.412H214.213V25.412ZM234.373 25.412H236.373V23.412H234.373V25.412ZM234.373 42.98V44.98H236.373V42.98H234.373ZM214.213 42.98V40.98H212.213V42.98H214.213ZM214.213 48.74H212.213V50.74H214.213V48.74ZM240.133 48.74H242.133V46.74H240.133V48.74ZM240.133 66.5V68.5H242.133V66.5H240.133ZM193.941 66.5V2.18H189.941V66.5H193.941ZM191.941 4.18H240.133V0.18H191.941V4.18ZM238.133 2.18V19.94H242.133V2.18H238.133ZM240.133 17.94H214.213V21.94H240.133V17.94ZM212.213 19.94V25.412H216.213V19.94H212.213ZM214.213 27.412H234.373V23.412H214.213V27.412ZM232.373 25.412V42.98H236.373V25.412H232.373ZM234.373 40.98H214.213V44.98H234.373V40.98ZM212.213 42.98V48.74H216.213V42.98H212.213ZM214.213 50.74H240.133V46.74H214.213V50.74ZM238.133 48.74V66.5H242.133V48.74H238.133ZM240.133 64.5H191.941V68.5H240.133V64.5ZM276.774 66.5H274.774V68.5H276.774V66.5ZM276.774 2.18V0.18H274.774V2.18H276.774ZM298.662 2.18L300.372 1.1431L299.788 0.18H298.662V2.18ZM313.446 26.564L311.736 27.6009L312.319 28.564H313.446V26.564ZM314.79 26.564V28.564H316.79V26.564H314.79ZM314.79 2.18V0.18H312.79V2.18H314.79ZM337.062 2.18H339.062V0.18H337.062V2.18ZM337.062 66.5V68.5H339.062V66.5H337.062ZM315.078 66.5L313.33 67.4729L313.902 68.5H315.078V66.5ZM300.486 40.292L302.233 39.3191L301.661 38.292H300.486V40.292ZM299.046 40.292V38.292H297.046V40.292H299.046ZM299.046 66.5V68.5H301.046V66.5H299.046ZM278.774 66.5V2.18H274.774V66.5H278.774ZM276.774 4.18H298.662V0.18H276.774V4.18ZM296.952 3.2169L311.736 27.6009L315.156 25.5271L300.372 1.1431L296.952 3.2169ZM313.446 28.564H314.79V24.564H313.446V28.564ZM316.79 26.564V2.18H312.79V26.564H316.79ZM314.79 4.18H337.062V0.18H314.79V4.18ZM335.062 2.18V66.5H339.062V2.18H335.062ZM337.062 64.5H315.078V68.5H337.062V64.5ZM316.825 65.5271L302.233 39.3191L298.738 41.2649L313.33 67.4729L316.825 65.5271ZM300.486 38.292H299.046V42.292H300.486V38.292ZM297.046 40.292V66.5H301.046V40.292H297.046ZM299.046 64.5H276.774V68.5H299.046V64.5ZM371.284 46.148L369.44 46.9241L369.453 46.9538L369.466 46.983L371.284 46.148ZM384.531 22.532L382.678 23.2834L382.69 23.3141L382.704 23.3443L384.531 22.532ZM371.284 22.628L369.458 21.8113L369.453 21.8227L369.448 21.8342L371.284 22.628ZM401.236 59.876L402.702 61.2355L402.711 61.2266L401.236 59.876ZM354.579 59.78L353.104 61.1307L353.113 61.1402L354.579 59.78ZM354.579 8.9L356.046 10.2596L356.055 10.2506L354.579 8.9ZM401.236 8.9L399.76 10.2507L399.769 10.2595L401.236 8.9ZM367.747 34.34C367.747 39.8236 368.252 44.1016 369.44 46.9241L373.127 45.3719C372.267 43.3304 371.747 39.7364 371.747 34.34H367.747ZM369.466 46.983C370.184 48.5459 371.306 49.768 372.81 50.5746C374.285 51.3652 376.018 51.7 377.908 51.7V47.7C376.469 47.7 375.434 47.4428 374.701 47.0494C373.997 46.672 373.471 46.1181 373.101 45.313L369.466 46.983ZM377.908 51.7C379.822 51.7 381.573 51.3678 383.053 50.5746C384.567 49.7626 385.682 48.5266 386.367 46.9418L382.696 45.3542C382.357 46.1374 381.856 46.6774 381.162 47.0494C380.434 47.4402 379.385 47.7 377.908 47.7V51.7ZM386.367 46.9418C387.566 44.1703 388.068 39.877 388.068 34.34H384.068C384.068 39.811 383.545 43.3897 382.696 45.3542L386.367 46.9418ZM388.068 34.34C388.068 28.7502 387.568 24.4406 386.359 21.7197L382.704 23.3443C383.543 25.2314 384.068 28.7938 384.068 34.34H388.068ZM386.385 21.7806C385.737 20.1824 384.644 18.9318 383.135 18.1112C381.666 17.3116 379.916 16.98 378.004 16.98V20.98C379.483 20.98 380.517 21.2404 381.224 21.6248C381.891 21.9881 382.366 22.5136 382.678 23.2834L386.385 21.7806ZM378.004 16.98C376.08 16.98 374.319 17.3234 372.825 18.1343C371.301 18.9617 370.172 20.2139 369.458 21.8113L373.109 23.4447C373.483 22.6101 374.018 22.0383 374.734 21.6497C375.48 21.2446 376.535 20.98 378.004 20.98V16.98ZM369.448 21.8342C368.25 24.604 367.747 28.8631 367.747 34.34H371.747C371.747 28.9369 372.269 25.388 373.119 23.4218L369.448 21.8342ZM406.531 34.34C406.531 45.8474 404.13 53.7537 399.76 58.5254L402.711 61.2266C408.069 55.3743 410.531 46.2566 410.531 34.34H406.531ZM399.769 58.5165C395.437 63.1905 388.314 65.748 377.908 65.748V69.748C388.877 69.748 397.306 67.0575 402.702 61.2355L399.769 58.5165ZM377.908 65.748C367.578 65.748 360.448 63.165 356.046 58.4198L353.113 61.1402C358.567 67.019 366.989 69.748 377.908 69.748V65.748ZM356.055 58.4294C351.684 53.6561 349.284 45.7799 349.284 34.34H345.284C345.284 46.1961 347.747 55.2799 353.104 61.1306L356.055 58.4294ZM349.284 34.34C349.284 22.8296 351.687 14.9635 356.046 10.2595L353.113 7.54047C347.744 13.3325 345.284 22.4264 345.284 34.34H349.284ZM356.055 10.2506C360.388 5.51816 367.507 2.932 377.908 2.932V-1.068C366.932 -1.068 358.499 1.65783 353.104 7.54935L356.055 10.2506ZM377.908 2.932C388.308 2.932 395.427 5.51816 399.76 10.2506L402.711 7.54935C397.316 1.65783 388.883 -1.068 377.908 -1.068V2.932ZM399.769 10.2595C404.128 14.9635 406.531 22.8296 406.531 34.34H410.531C410.531 22.4264 408.071 13.3325 402.702 7.54047L399.769 10.2595ZM415.559 20.324H413.559V22.324H415.559V20.324ZM415.559 2.18V0.18H413.559V2.18H415.559ZM463.559 2.18H465.559V0.18H463.559V2.18ZM463.559 20.324V22.324H465.559V20.324H463.559ZM451.079 20.324V18.324H449.079V20.324H451.079ZM451.079 66.5V68.5H453.079V66.5H451.079ZM428.807 66.5H426.807V68.5H428.807V66.5ZM428.807 20.324H430.807V18.324H428.807V20.324ZM417.559 20.324V2.18H413.559V20.324H417.559ZM415.559 4.18H463.559V0.18H415.559V4.18ZM461.559 2.18V20.324H465.559V2.18H461.559ZM463.559 18.324H451.079V22.324H463.559V18.324ZM449.079 20.324V66.5H453.079V20.324H449.079ZM451.079 64.5H428.807V68.5H451.079V64.5ZM430.807 66.5V20.324H426.807V66.5H430.807ZM428.807 18.324H415.559V22.324H428.807V18.324ZM499.501 66.5H497.501V68.5H499.501V66.5ZM499.501 2.18V0.18H497.501V2.18H499.501ZM545.869 2.18H547.869V0.18H545.869V2.18ZM545.869 20.324V22.324H547.869V20.324H545.869ZM521.773 20.324V18.324H519.773V20.324H521.773ZM521.773 30.692H519.773V32.692H521.773V30.692ZM540.109 30.692H542.109V28.692H540.109V30.692ZM540.109 48.836V50.836H542.109V48.836H540.109ZM521.773 48.836V46.836H519.773V48.836H521.773ZM521.773 66.5V68.5H523.773V66.5H521.773ZM501.501 66.5V2.18H497.501V66.5H501.501ZM499.501 4.18H545.869V0.18H499.501V4.18ZM543.869 2.18V20.324H547.869V2.18H543.869ZM545.869 18.324H521.773V22.324H545.869V18.324ZM519.773 20.324V30.692H523.773V20.324H519.773ZM521.773 32.692H540.109V28.692H521.773V32.692ZM538.109 30.692V48.836H542.109V30.692H538.109ZM540.109 46.836H521.773V50.836H540.109V46.836ZM519.773 48.836V66.5H523.773V48.836H519.773ZM521.773 64.5H499.501V68.5H521.773V64.5ZM577.136 46.148L575.293 46.9241L575.305 46.9538L575.319 46.983L577.136 46.148ZM590.384 22.532L588.531 23.2834L588.543 23.3141L588.556 23.3443L590.384 22.532ZM577.136 22.628L575.31 21.8113L575.305 21.8227L575.3 21.8342L577.136 22.628ZM607.088 59.876L608.555 61.2355L608.563 61.2266L607.088 59.876ZM560.432 59.78L558.957 61.1307L558.966 61.1402L560.432 59.78ZM560.432 8.9L561.899 10.2596L561.907 10.2506L560.432 8.9ZM607.088 8.9L605.613 10.2507L605.621 10.2595L607.088 8.9ZM573.6 34.34C573.6 39.8236 574.104 44.1016 575.293 46.9241L578.979 45.3719C578.12 43.3304 577.6 39.7364 577.6 34.34H573.6ZM575.319 46.983C576.037 48.5459 577.159 49.768 578.663 50.5746C580.137 51.3652 581.87 51.7 583.76 51.7V47.7C582.322 47.7 581.287 47.4428 580.553 47.0494C579.849 46.672 579.323 46.1181 578.953 45.313L575.319 46.983ZM583.76 51.7C585.674 51.7 587.426 51.3678 588.905 50.5746C590.419 49.7626 591.534 48.5266 592.22 46.9418L588.548 45.3542C588.21 46.1374 587.709 46.6774 587.015 47.0494C586.286 47.4402 585.238 47.7 583.76 47.7V51.7ZM592.22 46.9418C593.418 44.1703 593.92 39.877 593.92 34.34H589.92C589.92 39.811 589.398 43.3897 588.548 45.3542L592.22 46.9418ZM593.92 34.34C593.92 28.7502 593.421 24.4406 592.212 21.7197L588.556 23.3443C589.395 25.2314 589.92 28.7938 589.92 34.34H593.92ZM592.237 21.7806C591.59 20.1824 590.496 18.9318 588.988 18.1112C587.518 17.3116 585.768 16.98 583.856 16.98V20.98C585.336 20.98 586.37 21.2404 587.076 21.6248C587.744 21.9881 588.218 22.5136 588.531 23.2834L592.237 21.7806ZM583.856 16.98C581.933 16.98 580.172 17.3234 578.678 18.1343C577.154 18.9617 576.025 20.2139 575.31 21.8113L578.962 23.4447C579.335 22.6101 579.87 22.0383 580.586 21.6497C581.332 21.2446 582.387 20.98 583.856 20.98V16.98ZM575.3 21.8342C574.102 24.604 573.6 28.8631 573.6 34.34H577.6C577.6 28.9369 578.121 25.388 578.972 23.4218L575.3 21.8342ZM612.384 34.34C612.384 45.8474 609.982 53.7537 605.613 58.5254L608.563 61.2266C613.922 55.3743 616.384 46.2566 616.384 34.34H612.384ZM605.621 58.5165C601.289 63.1905 594.167 65.748 583.76 65.748V69.748C594.729 69.748 603.159 67.0575 608.555 61.2355L605.621 58.5165ZM583.76 65.748C573.431 65.748 566.3 63.165 561.898 58.4198L558.966 61.1402C564.42 67.019 572.841 69.748 583.76 69.748V65.748ZM561.907 58.4294C557.536 53.6561 555.136 45.7799 555.136 34.34H551.136C551.136 46.1961 553.6 55.2799 558.957 61.1306L561.907 58.4294ZM555.136 34.34C555.136 22.8296 557.539 14.9635 561.899 10.2595L558.965 7.54047C553.597 13.3325 551.136 22.4264 551.136 34.34H555.136ZM561.907 10.2506C566.24 5.51816 573.36 2.932 583.76 2.932V-1.068C572.784 -1.068 564.352 1.65783 558.957 7.54935L561.907 10.2506ZM583.76 2.932C594.16 2.932 601.28 5.51816 605.613 10.2506L608.563 7.54935C603.168 1.65783 594.736 -1.068 583.76 -1.068V2.932ZM605.621 10.2595C609.981 14.9635 612.384 22.8296 612.384 34.34H616.384C616.384 22.4264 613.923 13.3325 608.555 7.54047L605.621 10.2595ZM646.44 2.18H648.44V0.18H646.44V2.18ZM647.784 48.26L646.483 49.7785L646.509 49.8006L646.535 49.8217L647.784 48.26ZM657.096 48.26L655.795 46.7415L657.096 48.26ZM658.44 2.18V0.18H656.44V2.18H658.44ZM680.712 2.18H682.712V0.18H680.712V2.18ZM673.896 62.276L675.149 63.8356L675.155 63.8303L675.162 63.8249L673.896 62.276ZM630.984 62.372L629.746 63.9423L630.984 62.372ZM624.168 2.18V0.18H622.168V2.18H624.168ZM644.44 2.18V44.324H648.44V2.18H644.44ZM644.44 44.324C644.44 46.4317 644.942 48.4576 646.483 49.7785L649.086 46.7415C648.835 46.5264 648.44 45.9283 648.44 44.324H644.44ZM646.535 49.8217C648.034 51.021 650.171 51.412 652.488 51.412V47.412C650.454 47.412 649.455 47.035 649.034 46.6983L646.535 49.8217ZM652.488 51.412C654.786 51.412 656.939 51.0293 658.398 49.7785L655.795 46.7415C655.462 47.0267 654.543 47.412 652.488 47.412V51.412ZM658.398 49.7785C659.939 48.4576 660.44 46.4317 660.44 44.324H656.44C656.44 45.9283 656.046 46.5264 655.795 46.7415L658.398 49.7785ZM660.44 44.324V2.18H656.44V44.324H660.44ZM658.44 4.18H680.712V0.18H658.44V4.18ZM678.712 2.18V43.076H682.712V2.18H678.712ZM678.712 43.076C678.712 51.8957 676.503 57.5643 672.631 60.7271L675.162 63.8249C680.378 59.5637 682.712 52.4323 682.712 43.076H678.712ZM672.644 60.7164C668.627 63.9419 662.012 65.748 652.393 65.748V69.748C662.357 69.748 670.078 67.9061 675.149 63.8356L672.644 60.7164ZM652.393 65.748C642.835 65.748 636.244 63.9734 632.223 60.8017L629.746 63.9423C634.813 67.9386 642.494 69.748 652.393 69.748V65.748ZM632.223 60.8017C628.378 57.7692 626.168 52.2179 626.168 43.46H622.168C622.168 52.7501 624.503 59.8068 629.746 63.9423L632.223 60.8017ZM626.168 43.46V2.18H622.168V43.46H626.168ZM624.168 4.18H646.44V0.18H624.168V4.18ZM691.812 66.5H689.812V68.5H691.812V66.5ZM691.812 2.18V0.18H689.812V2.18H691.812ZM713.701 2.18L715.411 1.1431L714.827 0.18H713.701V2.18ZM728.484 26.564L726.774 27.6009L727.358 28.564H728.484V26.564ZM729.828 26.564V28.564H731.828V26.564H729.828ZM729.828 2.18V0.18H727.828V2.18H729.828ZM752.101 2.18H754.101V0.18H752.101V2.18ZM752.101 66.5V68.5H754.101V66.5H752.101ZM730.117 66.5L728.369 67.4729L728.941 68.5H730.117V66.5ZM715.524 40.292L717.272 39.3191L716.7 38.292H715.524V40.292ZM714.084 40.292V38.292H712.084V40.292H714.084ZM714.084 66.5V68.5H716.084V66.5H714.084ZM693.812 66.5V2.18H689.812V66.5H693.812ZM691.812 4.18H713.701V0.18H691.812V4.18ZM711.99 3.2169L726.774 27.6009L730.195 25.5271L715.411 1.1431L711.99 3.2169ZM728.484 28.564H729.828V24.564H728.484V28.564ZM731.828 26.564V2.18H727.828V26.564H731.828ZM729.828 4.18H752.101V0.18H729.828V4.18ZM750.101 2.18V66.5H754.101V2.18H750.101ZM752.101 64.5H730.117V68.5H752.101V64.5ZM731.864 65.5271L717.272 39.3191L713.777 41.2649L728.369 67.4729L731.864 65.5271ZM715.524 38.292H714.084V42.292H715.524V38.292ZM712.084 40.292V66.5H716.084V40.292H712.084ZM714.084 64.5H691.812V68.5H714.084V64.5ZM763.666 66.5H761.666V68.5H763.666V66.5ZM763.666 2.18V0.18H761.666V2.18H763.666ZM814.738 9.668L816.171 8.27227L814.738 9.668ZM815.026 58.34L816.544 59.6431L816.551 59.6343L815.026 58.34ZM797.746 23.204L796.031 24.233L796.044 24.2537L796.057 24.2741L797.746 23.204ZM785.938 20.324V18.324H783.938V20.324H785.938ZM785.938 48.356H783.938V50.356H785.938V48.356ZM797.266 45.86L798.708 47.2462L798.722 47.2315L798.736 47.2166L797.266 45.86ZM791.794 64.5H763.666V68.5H791.794V64.5ZM765.666 66.5V2.18H761.666V66.5H765.666ZM763.666 4.18H790.834V0.18H763.666V4.18ZM790.834 4.18C801.674 4.18 808.989 6.63356 813.306 11.0637L816.171 8.27227C810.759 2.71844 802.138 0.18 790.834 0.18V4.18ZM813.306 11.0637C817.644 15.5157 820.034 22.8903 820.034 33.668H824.034C824.034 22.4297 821.561 13.8043 816.171 8.27227L813.306 11.0637ZM820.034 33.668C820.034 44.373 817.743 52.0491 813.502 57.0457L816.551 59.6343C821.654 53.6229 824.034 44.851 824.034 33.668H820.034ZM813.509 57.0369C809.376 61.8491 802.327 64.5 791.794 64.5V68.5C802.894 68.5 811.332 65.7109 816.544 59.6431L813.509 57.0369ZM801.57 34.724C801.57 31.784 801.416 29.2711 801.09 27.2112C800.769 25.1865 800.258 23.4324 799.436 22.1339L796.057 24.2741C796.45 24.8956 796.851 26.0215 797.139 27.8368C797.421 29.6169 797.57 31.9039 797.57 34.724H801.57ZM799.461 22.175C797.727 19.285 794.098 18.324 789.874 18.324V22.324C793.842 22.324 795.461 23.283 796.031 24.233L799.461 22.175ZM789.874 18.324H785.938V22.324H789.874V18.324ZM783.938 20.324V48.356H787.938V20.324H783.938ZM785.938 50.356H789.874V46.356H785.938V50.356ZM789.874 50.356C793.504 50.356 796.591 49.4483 798.708 47.2462L795.825 44.4738C794.742 45.5997 792.901 46.356 789.874 46.356V50.356ZM798.736 47.2166C799.865 45.9937 800.539 44.232 800.953 42.2332C801.375 40.1942 801.57 37.6777 801.57 34.724H797.57C797.57 37.5303 797.382 39.7498 797.036 41.4228C796.681 43.136 796.204 44.0623 795.797 44.5034L798.736 47.2166Z" fill="url(#paint1_linear_155_32425)" mask="url(#path-1-outside-1_155_32425)"/>
<defs>
<linearGradient id="paint0_linear_155_32425" x1="411.77" y1="103.5" x2="411.77" y2="-42.5" gradientUnits="userSpaceOnUse">
<stop stop-color="#FFDFFF"/>
<stop offset="0.142857" stop-color="#D643EC"/>
<stop offset="0.285714" stop-color="#3D015D"/>
<stop offset="0.428571" stop-color="#D00C85"/>
<stop offset="0.571429" stop-color="#FFDFFF"/>
<stop offset="0.714286" stop-color="#CD77FB"/>
<stop offset="0.857143" stop-color="#A052FA"/>
<stop offset="1" stop-color="#3425A2"/>
</linearGradient>
<linearGradient id="paint1_linear_155_32425" x1="411" y1="103.5" x2="411" y2="-42.5" gradientUnits="userSpaceOnUse">
<stop stop-color="#FF53C3"/>
<stop offset="0.166667" stop-color="white"/>
<stop offset="0.333333" stop-color="#FF7FD6"/>
<stop offset="0.5" stop-color="#FF53C3"/>
<stop offset="0.666667" stop-color="#FFDFFF"/>
<stop offset="0.833333" stop-color="#FF53C3"/>
<stop offset="1" stop-color="#FFDFFF"/>
</linearGradient>
</defs>
</svg>
