<svg xmlns="http://www.w3.org/2000/svg" width="200" height="200" viewBox="0 0 200 200" fill="none">
  <rect x="0.5" y="0.5" width="199" height="199" rx="7.5" stroke="#ABACB9"/>
  <path opacity="0.1" fill-rule="evenodd" clip-rule="evenodd" d="M99.0967 65.8077L99.5224 67.0955L100.075 65.7877C99.7441 65.7891 99.418 65.7958 99.0967 65.8077ZM156.512 47.9375L166 27H121.891C115.322 25.6667 108.026 25 100 25C91.9744 25 84.6776 25.6667 78.1095 27H35L43.5289 47.8788C35.1763 59.8524 31 77.3928 31 100.5C31 123.66 35.2417 141.278 43.7251 153.354L35 173H73.896C81.5282 175 90.2296 176 100 176C109.889 176 118.672 175 126.348 173H164.045L156.445 153.325C164.815 141.24 169 123.632 169 100.5C169 77.4305 164.837 59.9096 156.512 47.9375ZM99.853 135.212L99.5224 134.212L99.1842 135.202C99.4048 135.208 99.6277 135.211 99.853 135.212Z" fill="white"/>
</svg>