<svg width="32" height="32" viewBox="0 0 32 32" fill="none" xmlns="http://www.w3.org/2000/svg">
<circle cx="16" cy="16" r="16" fill="#B1D94D"/>
<path d="M20.3819 12.2734H19.2827C19.0436 12.2734 18.8163 12.3883 18.6757 12.5852L14.9913 17.6945L13.3225 15.3789C13.1819 15.1844 12.9569 15.0672 12.7155 15.0672H11.6163C11.4639 15.0672 11.3749 15.2406 11.4639 15.3648L14.3842 19.4148C14.4532 19.5111 14.5442 19.5896 14.6495 19.6437C14.7549 19.6978 14.8717 19.7261 14.9901 19.7261C15.1086 19.7261 15.2253 19.6978 15.3307 19.6437C15.436 19.5896 15.527 19.5111 15.596 19.4148L20.5319 12.5711C20.6233 12.4469 20.5343 12.2734 20.3819 12.2734Z" fill="white"/>
<path d="M16 5.5C10.2016 5.5 5.5 10.2016 5.5 16C5.5 21.7984 10.2016 26.5 16 26.5C21.7984 26.5 26.5 21.7984 26.5 16C26.5 10.2016 21.7984 5.5 16 5.5ZM16 24.7188C11.1859 24.7188 7.28125 20.8141 7.28125 16C7.28125 11.1859 11.1859 7.28125 16 7.28125C20.8141 7.28125 24.7188 11.1859 24.7188 16C24.7188 20.8141 20.8141 24.7188 16 24.7188Z" fill="white"/>
</svg>
